<svg width="290" height="446" viewBox="0 0 290 446" fill="none" xmlns="http://www.w3.org/2000/svg">
<path d="M-65.9998 445.175C-79.3248 445.175 -90.6818 440.48 -100.071 431.091C-109.473 421.689 -114.175 410.325 -114.175 397C-114.175 383.675 -109.473 372.311 -100.071 362.908C-90.6818 353.519 -79.3248 348.825 -65.9998 348.825C-62.2415 348.825 -58.1415 349.419 -53.6998 350.608C-49.2581 351.811 -45.1581 353.437 -41.3998 355.487L17.5377 282.2C10.7044 275.025 6.09186 267.167 3.7002 258.625C1.30853 250.083 0.966873 241.371 2.67522 232.487L-84.4498 203.787C-88.5498 211.646 -94.4401 217.967 -102.121 222.75C-109.815 227.533 -118.275 229.925 -127.5 229.925C-140.825 229.925 -152.189 225.224 -161.591 215.821C-170.98 206.432 -175.675 195.075 -175.675 181.75C-175.675 168.425 -170.98 157.061 -161.591 147.658C-152.189 138.269 -140.825 133.575 -127.5 133.575C-114.175 133.575 -102.811 138.269 -93.4083 147.658C-84.0193 157.061 -79.3248 168.425 -79.3248 181.75C-79.3248 183.8 -79.4068 185.337 -79.5708 186.362C-79.7485 187.387 -79.8373 188.412 -79.8373 189.437L6.77521 219.675C10.5335 212.158 16.089 205.496 23.4417 199.687C30.7807 193.879 39.5752 190.121 49.8252 188.412V96.1624C36.8419 94.1124 26.7627 88.3861 19.5877 78.9835C12.4127 69.5945 8.8252 59.4333 8.8252 48.5C8.8252 35.1749 13.5266 23.8111 22.9292 14.4085C32.3182 5.01945 43.6752 0.324951 57.0002 0.324951C70.3252 0.324951 81.689 5.01945 91.0917 14.4085C100.481 23.8111 105.175 35.1749 105.175 48.5C105.175 59.4333 101.588 69.5945 94.4127 78.9835C87.2377 88.3861 77.1585 94.1124 64.1752 96.1624V188.412C74.4252 190.121 83.1377 193.879 90.3127 199.687C97.4877 205.496 103.125 212.158 107.225 219.675L193.838 189.437C193.496 188.071 193.325 186.957 193.325 186.096C193.325 185.249 193.325 183.8 193.325 181.75C193.325 168.425 198.027 157.061 207.429 147.658C216.818 138.269 228.175 133.575 241.5 133.575C254.825 133.575 266.189 138.269 275.592 147.658C284.981 157.061 289.675 168.425 289.675 181.75C289.675 195.075 284.981 206.432 275.592 215.821C266.189 225.224 254.825 229.925 241.5 229.925C232.275 229.925 223.822 227.533 216.142 222.75C208.447 217.967 202.55 211.646 198.45 203.787L111.325 232.487C113.034 241.371 112.692 250.083 110.3 258.625C107.909 267.167 103.296 274.854 96.4627 281.687L155.4 354.975C159.159 353.267 163.259 351.811 167.7 350.608C172.142 349.419 176.242 348.825 180 348.825C193.325 348.825 204.689 353.519 214.092 362.908C223.481 372.311 228.175 383.675 228.175 397C228.175 410.325 223.481 421.689 214.092 431.091C204.689 440.48 193.325 445.175 180 445.175C166.675 445.175 155.318 440.48 145.929 431.091C136.527 421.689 131.825 410.325 131.825 397C131.825 391.192 132.768 385.554 134.654 380.087C136.527 374.621 139.854 369.496 144.638 364.712L85.7002 290.4C77.8419 295.867 68.364 298.6 57.2667 298.6C46.1557 298.6 36.5002 295.867 28.3002 290.4L-30.6373 364.712C-26.1956 369.496 -22.9498 374.621 -20.8998 380.087C-18.8498 385.554 -17.8248 391.192 -17.8248 397C-17.8248 410.325 -22.5261 421.689 -31.9288 431.091C-41.3178 440.48 -52.6748 445.175 -65.9998 445.175ZM-127.5 215.575C-118.275 215.575 -110.328 212.24 -103.658 205.571C-97.0026 198.915 -93.6748 190.975 -93.6748 181.75C-93.6748 172.525 -97.0026 164.578 -103.658 157.908C-110.328 151.253 -118.275 147.925 -127.5 147.925C-136.725 147.925 -144.665 151.253 -151.321 157.908C-157.99 164.578 -161.325 172.525 -161.325 181.75C-161.325 190.975 -157.99 198.915 -151.321 205.571C-144.665 212.24 -136.725 215.575 -127.5 215.575ZM-65.9998 430.825C-56.7748 430.825 -48.8276 427.497 -42.1583 420.841C-35.5026 414.172 -32.1748 406.225 -32.1748 397C-32.1748 387.775 -35.5026 379.828 -42.1583 373.158C-48.8276 366.503 -56.7748 363.175 -65.9998 363.175C-75.2248 363.175 -83.1651 366.503 -89.8208 373.158C-96.4901 379.828 -99.8248 387.775 -99.8248 397C-99.8248 406.225 -96.4901 414.172 -89.8208 420.841C-83.1651 427.497 -75.2248 430.825 -65.9998 430.825ZM57.0002 82.325C66.2252 82.325 74.1724 78.9903 80.8417 72.321C87.4974 65.6653 90.8252 57.7249 90.8252 48.5C90.8252 39.2749 87.4974 31.3278 80.8417 24.6585C74.1724 18.0028 66.2252 14.675 57.0002 14.675C47.7752 14.675 39.8349 18.0028 33.1792 24.6585C26.5099 31.3278 23.1752 39.2749 23.1752 48.5C23.1752 57.7249 26.5099 65.6653 33.1792 72.321C39.8349 78.9903 47.7752 82.325 57.0002 82.325ZM57.0002 284.25C68.2752 284.25 77.9307 280.232 85.9667 272.196C93.989 264.174 98.0002 254.525 98.0002 243.25C98.0002 231.975 93.989 222.319 85.9667 214.283C77.9307 206.261 68.2752 202.25 57.0002 202.25C45.7252 202.25 36.0765 206.261 28.0542 214.283C20.0182 222.319 16.0002 231.975 16.0002 243.25C16.0002 254.525 20.0182 264.174 28.0542 272.196C36.0765 280.232 45.7252 284.25 57.0002 284.25ZM180 430.825C189.225 430.825 197.172 427.497 203.842 420.841C210.497 414.172 213.825 406.225 213.825 397C213.825 387.775 210.497 379.828 203.842 373.158C197.172 366.503 189.225 363.175 180 363.175C170.775 363.175 162.828 366.503 156.159 373.158C149.503 379.828 146.175 387.775 146.175 397C146.175 406.225 149.503 414.172 156.159 420.841C162.828 427.497 170.775 430.825 180 430.825ZM241.5 215.575C250.725 215.575 258.672 212.24 265.342 205.571C271.997 198.915 275.325 190.975 275.325 181.75C275.325 172.525 271.997 164.578 265.342 157.908C258.672 151.253 250.725 147.925 241.5 147.925C232.275 147.925 224.335 151.253 217.679 157.908C211.01 164.578 207.675 172.525 207.675 181.75C207.675 190.975 211.01 198.915 217.679 205.571C224.335 212.24 232.275 215.575 241.5 215.575Z" fill="#EBF4FE" fill-opacity="0.7"/>
</svg>
