<svg width="40" height="40" viewBox="0 0 40 40" fill="none" xmlns="http://www.w3.org/2000/svg">
<mask id="mask0_78_96" style="mask-type:alpha" maskUnits="userSpaceOnUse" x="0" y="0" width="40" height="40">
<rect width="40" height="40" fill="#D9D9D9"/>
</mask>
<g mask="url(#mask0_78_96)">
<path d="M6.66683 35C5.75016 35 4.96572 34.6739 4.3135 34.0217C3.66016 33.3684 3.3335 32.5834 3.3335 31.6667V13.3334C3.3335 12.4167 3.66016 11.6323 4.3135 10.98C4.96572 10.3267 5.75016 10 6.66683 10H13.3335V6.66671C13.3335 5.75004 13.6602 4.96504 14.3135 4.31171C14.9657 3.65948 15.7502 3.33337 16.6668 3.33337H23.3335C24.2502 3.33337 25.0352 3.65948 25.6885 4.31171C26.3407 4.96504 26.6668 5.75004 26.6668 6.66671V10H33.3335C34.2502 10 35.0352 10.3267 35.6885 10.98C36.3407 11.6323 36.6668 12.4167 36.6668 13.3334V31.6667C36.6668 32.5834 36.3407 33.3684 35.6885 34.0217C35.0352 34.6739 34.2502 35 33.3335 35H6.66683ZM16.6668 10H23.3335V6.66671H16.6668V10ZM6.66683 31.6667H33.3335V13.3334H6.66683V31.6667Z" fill="#1976D2"/>
</g>
</svg>
