<svg width="56" height="56" viewBox="0 0 56 56" fill="none" xmlns="http://www.w3.org/2000/svg">
<rect width="56" height="56" rx="2" fill="#EBF4FE"/>
<mask id="mask0_78_95" style="mask-type:alpha" maskUnits="userSpaceOnUse" x="8" y="8" width="40" height="40">
<rect x="8" y="8" width="40" height="40" fill="#D9D9D9"/>
</mask>
<g mask="url(#mask0_78_95)">
<path d="M14.6668 43C13.7502 43 12.9657 42.6739 12.3135 42.0217C11.6602 41.3684 11.3335 40.5834 11.3335 39.6667V21.3334C11.3335 20.4167 11.6602 19.6323 12.3135 18.98C12.9657 18.3267 13.7502 18 14.6668 18H21.3335V14.6667C21.3335 13.75 21.6602 12.965 22.3135 12.3117C22.9657 11.6595 23.7502 11.3334 24.6668 11.3334H31.3335C32.2502 11.3334 33.0352 11.6595 33.6885 12.3117C34.3407 12.965 34.6668 13.75 34.6668 14.6667V18H41.3335C42.2502 18 43.0352 18.3267 43.6885 18.98C44.3407 19.6323 44.6668 20.4167 44.6668 21.3334V39.6667C44.6668 40.5834 44.3407 41.3684 43.6885 42.0217C43.0352 42.6739 42.2502 43 41.3335 43H14.6668ZM24.6668 18H31.3335V14.6667H24.6668V18ZM14.6668 39.6667H41.3335V21.3334H14.6668V39.6667Z" fill="#1976D2"/>
</g>
</svg>
