<svg width="91" height="55" viewBox="0 0 91 55" fill="none" xmlns="http://www.w3.org/2000/svg">
<rect width="91" height="54" transform="translate(0 0.5)" fill="#EBF4FE"/>
<path d="M16 34.3983V16.5H22.543C23.8834 16.5 25.008 16.7564 25.9168 17.2691C26.8312 17.7818 27.5213 18.4868 27.987 19.384C28.4584 20.2754 28.6941 21.2892 28.6941 22.4253C28.6941 23.5731 28.4584 24.5927 27.987 25.4841C27.5156 26.3755 26.8198 27.0776 25.8997 27.5903C24.9796 28.0972 23.8465 28.3506 22.5004 28.3506H18.164V25.6851H22.0744C22.8582 25.6851 23.5 25.5453 23.9999 25.2656C24.4997 24.986 24.8688 24.6014 25.1074 24.112C25.3516 23.6226 25.4737 23.0604 25.4737 22.4253C25.4737 21.7903 25.3516 21.2309 25.1074 20.7474C24.8688 20.2638 24.4968 19.888 23.9913 19.62C23.4915 19.3461 22.8469 19.2092 22.0574 19.2092H19.1608V34.3983H16Z" fill="#1976D2"/>
<path d="M31.7356 34.3983L25.1074 38.5L34.5045 16.5H38.4064L44.5575 34.3983H41.1838L36.5236 20.1706H36.3873L31.7356 34.3983ZM31.8464 27.3806H41.0475V29.9849H31.8464V27.3806Z" fill="#1976D2"/>
<path d="M43.9803 19.218V16.5H57.9013V19.218H52.5084V34.3983H49.3732V19.218H43.9803Z" fill="#1976D2"/>
<path d="M57.2629 38.5L60.5849 16.5H63.7457V24.0771H71.8307V16.5H75V34.3983H71.8307V26.795H63.7457V34.3983L57.2629 38.5Z" fill="#1976D2"/>
</svg>
