<svg width="272" height="446" viewBox="0 0 272 446" fill="none" xmlns="http://www.w3.org/2000/svg">
<path d="M-83.9998 445.175C-97.3248 445.175 -108.682 440.48 -118.071 431.091C-127.473 421.689 -132.175 410.325 -132.175 397C-132.175 383.675 -127.473 372.311 -118.071 362.908C-108.682 353.519 -97.3248 348.825 -83.9998 348.825C-80.2415 348.825 -76.1415 349.419 -71.6998 350.608C-67.2581 351.811 -63.1581 353.437 -59.3998 355.487L-0.462301 282.2C-7.29563 275.025 -11.9081 267.167 -14.2998 258.625C-16.6915 250.083 -17.0331 241.371 -15.3248 232.487L-102.45 203.787C-106.55 211.646 -112.44 217.967 -120.121 222.75C-127.815 227.533 -136.275 229.925 -145.5 229.925C-158.825 229.925 -170.189 225.224 -179.591 215.821C-188.98 206.432 -193.675 195.075 -193.675 181.75C-193.675 168.425 -188.98 157.061 -179.591 147.658C-170.189 138.269 -158.825 133.575 -145.5 133.575C-132.175 133.575 -120.811 138.269 -111.408 147.658C-102.019 157.061 -97.3248 168.425 -97.3248 181.75C-97.3248 183.8 -97.4068 185.337 -97.5708 186.362C-97.7485 187.387 -97.8373 188.412 -97.8373 189.437L-11.2248 219.675C-7.46646 212.158 -1.91097 205.496 5.4417 199.687C12.7807 193.879 21.5752 190.121 31.8252 188.412V96.1624C18.8419 94.1124 8.76271 88.3861 1.58771 78.9834C-5.58729 69.5944 -9.1748 59.4333 -9.1748 48.4999C-9.1748 35.1749 -4.47346 23.8111 4.92921 14.4085C14.3182 5.01945 25.6752 0.324951 39.0002 0.324951C52.3252 0.324951 63.689 5.01945 73.0917 14.4085C82.4807 23.8111 87.1752 35.1749 87.1752 48.4999C87.1752 59.4333 83.5877 69.5944 76.4127 78.9834C69.2377 88.3861 59.1585 94.1124 46.1752 96.1624V188.412C56.4252 190.121 65.1377 193.879 72.3127 199.687C79.4877 205.496 85.1252 212.158 89.2252 219.675L175.838 189.437C175.496 188.071 175.325 186.957 175.325 186.096C175.325 185.249 175.325 183.8 175.325 181.75C175.325 168.425 180.027 157.061 189.429 147.658C198.818 138.269 210.175 133.575 223.5 133.575C236.825 133.575 248.189 138.269 257.592 147.658C266.981 157.061 271.675 168.425 271.675 181.75C271.675 195.075 266.981 206.432 257.592 215.821C248.189 225.224 236.825 229.925 223.5 229.925C214.275 229.925 205.822 227.533 198.142 222.75C190.447 217.967 184.55 211.646 180.45 203.787L93.3252 232.487C95.0335 241.371 94.6919 250.083 92.3002 258.625C89.9085 267.167 85.296 274.854 78.4627 281.687L137.4 354.975C141.159 353.267 145.259 351.811 149.7 350.608C154.142 349.419 158.242 348.825 162 348.825C175.325 348.825 186.689 353.519 196.092 362.908C205.481 372.311 210.175 383.675 210.175 397C210.175 410.325 205.481 421.689 196.092 431.091C186.689 440.48 175.325 445.175 162 445.175C148.675 445.175 137.318 440.48 127.929 431.091C118.527 421.689 113.825 410.325 113.825 397C113.825 391.192 114.768 385.554 116.654 380.087C118.527 374.621 121.854 369.496 126.638 364.712L67.7002 290.4C59.8419 295.867 50.364 298.6 39.2667 298.6C28.1557 298.6 18.5002 295.867 10.3002 290.4L-48.6373 364.712C-44.1956 369.496 -40.9498 374.621 -38.8998 380.087C-36.8498 385.554 -35.8248 391.192 -35.8248 397C-35.8248 410.325 -40.5261 421.689 -49.9288 431.091C-59.3178 440.48 -70.6748 445.175 -83.9998 445.175ZM-145.5 215.575C-136.275 215.575 -128.328 212.24 -121.658 205.571C-115.003 198.915 -111.675 190.975 -111.675 181.75C-111.675 172.525 -115.003 164.578 -121.658 157.908C-128.328 151.253 -136.275 147.925 -145.5 147.925C-154.725 147.925 -162.665 151.253 -169.321 157.908C-175.99 164.578 -179.325 172.525 -179.325 181.75C-179.325 190.975 -175.99 198.915 -169.321 205.571C-162.665 212.24 -154.725 215.575 -145.5 215.575ZM-83.9998 430.825C-74.7748 430.825 -66.8276 427.497 -60.1583 420.841C-53.5026 414.172 -50.1748 406.225 -50.1748 397C-50.1748 387.775 -53.5026 379.828 -60.1583 373.158C-66.8276 366.503 -74.7748 363.175 -83.9998 363.175C-93.2248 363.175 -101.165 366.503 -107.821 373.158C-114.49 379.828 -117.825 387.775 -117.825 397C-117.825 406.225 -114.49 414.172 -107.821 420.841C-101.165 427.497 -93.2248 430.825 -83.9998 430.825ZM39.0002 82.325C48.2252 82.325 56.1724 78.9903 62.8417 72.321C69.4974 65.6653 72.8252 57.7249 72.8252 48.4999C72.8252 39.2749 69.4974 31.3278 62.8417 24.6585C56.1724 18.0028 48.2252 14.675 39.0002 14.675C29.7752 14.675 21.8349 18.0028 15.1792 24.6585C8.50988 31.3278 5.17521 39.2749 5.17521 48.4999C5.17521 57.7249 8.50988 65.6653 15.1792 72.321C21.8349 78.9903 29.7752 82.325 39.0002 82.325ZM39.0002 284.25C50.2752 284.25 59.9307 280.232 67.9667 272.196C75.989 264.174 80.0002 254.525 80.0002 243.25C80.0002 231.975 75.989 222.319 67.9667 214.283C59.9307 206.261 50.2752 202.25 39.0002 202.25C27.7252 202.25 18.0765 206.261 10.0542 214.283C2.01821 222.319 -1.9998 231.975 -1.9998 243.25C-1.9998 254.525 2.01821 264.174 10.0542 272.196C18.0765 280.232 27.7252 284.25 39.0002 284.25ZM162 430.825C171.225 430.825 179.172 427.497 185.842 420.841C192.497 414.172 195.825 406.225 195.825 397C195.825 387.775 192.497 379.828 185.842 373.158C179.172 366.503 171.225 363.175 162 363.175C152.775 363.175 144.828 366.503 138.159 373.158C131.503 379.828 128.175 387.775 128.175 397C128.175 406.225 131.503 414.172 138.159 420.841C144.828 427.497 152.775 430.825 162 430.825ZM223.5 215.575C232.725 215.575 240.672 212.24 247.342 205.571C253.997 198.915 257.325 190.975 257.325 181.75C257.325 172.525 253.997 164.578 247.342 157.908C240.672 151.253 232.725 147.925 223.5 147.925C214.275 147.925 206.335 151.253 199.679 157.908C193.01 164.578 189.675 172.525 189.675 181.75C189.675 190.975 193.01 198.915 199.679 205.571C206.335 212.24 214.275 215.575 223.5 215.575Z" fill="white" fill-opacity="0.8"/>
</svg>
