<svg width="60" height="54" viewBox="0 0 60 54" fill="none" xmlns="http://www.w3.org/2000/svg">
<rect width="59.022" height="53.4545" fill="#1976D2"/>
<path d="M0 33.4545V16H6.54545C7.88636 16 9.01136 16.25 9.92045 16.75C10.8352 17.25 11.5256 17.9375 11.9915 18.8125C12.4631 19.6818 12.6989 20.6705 12.6989 21.7784C12.6989 22.8977 12.4631 23.892 11.9915 24.7614C11.5199 25.6307 10.8239 26.3153 9.90341 26.8153C8.98295 27.3097 7.84943 27.5568 6.50284 27.5568H2.16477V24.9574H6.0767C6.8608 24.9574 7.50284 24.821 8.00284 24.5483C8.50284 24.2756 8.87216 23.9006 9.1108 23.4233C9.35511 22.946 9.47727 22.3977 9.47727 21.7784C9.47727 21.1591 9.35511 20.6136 9.1108 20.142C8.87216 19.6705 8.5 19.304 7.99432 19.0426C7.49432 18.7756 6.84943 18.642 6.05966 18.642H3.16193V33.4545H0Z" fill="white"/>
<path d="M15.7415 33.4545L9.1108 37.4545L18.5114 16H22.4148L28.5682 33.4545H25.1932L20.5312 19.5795H20.3949L15.7415 33.4545ZM15.8523 26.6108H25.0568V29.1506H15.8523V26.6108Z" fill="white"/>
<path d="M27.9908 18.6506V16H41.9169V18.6506H36.522V33.4545H33.3857V18.6506H27.9908Z" fill="white"/>
<path d="M41.2783 37.4545L44.6016 16H47.7635V23.3892H55.8516V16H59.022V33.4545H55.8516V26.0398H47.7635V33.4545L41.2783 37.4545Z" fill="white"/>
</svg>
